<svg width="31" height="31" viewBox="0 0 31 31" fill="none" xmlns="http://www.w3.org/2000/svg">
<path d="M30.2152 26.6755L24.3568 20.668C24.0923 20.3968 23.7339 20.2462 23.3578 20.2462H22.4C24.0218 18.1191 24.9855 15.4437 24.9855 12.5333C24.9855 5.60988 19.5149 0 12.7633 0C6.01165 0 0.541016 5.60988 0.541016 12.5333C0.541016 19.4568 6.01165 25.0667 12.7633 25.0667C15.6014 25.0667 18.2104 24.0785 20.2846 22.4154V23.3976C20.2846 23.7832 20.4316 24.1508 20.696 24.4219L26.5544 30.4295C27.1068 30.9959 27.9999 30.9959 28.5464 30.4295L30.2093 28.7243C30.7617 28.1578 30.7617 27.2419 30.2152 26.6755ZM12.7633 20.2462C8.60888 20.2462 5.24188 16.7995 5.24188 12.5333C5.24188 8.27321 8.603 4.82052 12.7633 4.82052C16.9177 4.82052 20.2846 8.26719 20.2846 12.5333C20.2846 16.7935 16.9235 20.2462 12.7633 20.2462Z" fill="#1C1C1C" fill-opacity="0.89"/>
</svg>
